<?xml version="1.0" encoding="UTF-8"?>
<svg xmlns="http://www.w3.org/2000/svg" width="960" height="540" viewBox="0 0 960 540" role="img" aria-labelledby="chart-title chart-desc" data-renderer-version="3" data-tick-step-days="1">
  <title id="chart-title">dsh-completion-guard npm download growth</title>
  <desc id="chart-desc">dsh-completion-guard npm download growth. Full daily history · 2026-08-26 → 2026-09-06. Download counts measure registry requests, not unique users or confirmed installations.</desc>
  <defs>
    <linearGradient id="growth-fill" x1="0" y1="0" x2="0" y2="1">
      <stop offset="0%" stop-color="#14b8a6" stop-opacity="0.24"/>
      <stop offset="100%" stop-color="#14b8a6" stop-opacity="0.02"/>
    </linearGradient>
    <filter id="soft-shadow" x="-10%" y="-10%" width="120%" height="120%">
      <feDropShadow dx="0" dy="4" stdDeviation="8" flood-color="#0f172a" flood-opacity="0.08"/>
    </filter>
  </defs>
  <style>
    text { font-family: Inter, ui-sans-serif, -apple-system, BlinkMacSystemFont, "Segoe UI", "PingFang SC", "Microsoft YaHei", sans-serif; fill: #172033; }
    .title { font-size: 24px; font-weight: 720; letter-spacing: -0.3px; }
    .subtitle { font-size: 12px; fill: #64748b; }
    .metric-label { font-size: 11px; fill: #64748b; font-weight: 650; letter-spacing: 0.4px; }
    .metric-value { font-size: 34px; fill: #0f766e; font-weight: 760; letter-spacing: -1px; }
    .axis-title { font-size: 12px; fill: #475569; font-weight: 650; }
    .axis { font-size: 11px; fill: #718096; }
    .x-axis-tick { font-family: ui-monospace, "SFMono-Regular", Consolas, "Liberation Mono", monospace; font-variant-numeric: tabular-nums; }
    .grid { stroke: #e6edf4; stroke-width: 1; }
    .package-role { font-size: 11px; fill: #64748b; font-weight: 650; }
    .package-name { font-size: 12px; fill: #334155; }
    .package-total { font-size: 13px; fill: #172033; font-weight: 720; }
    .rename { stroke: #8b5cf6; stroke-width: 1.5; stroke-dasharray: 5 5; }
    .rename-label { font-size: 11px; fill: #6d28d9; font-weight: 650; }
    .endpoint { font-size: 12px; fill: #0f766e; font-weight: 740; }
    .endpoint-backdrop { fill: #ffffff; stroke: #99f6e4; stroke-width: 1; }
  </style>
  <rect width="100%" height="100%" rx="18" fill="#f8fafc"/>
  <rect x="18" y="18" width="924" height="504" rx="16" fill="#ffffff" filter="url(#soft-shadow)"/>
  <text x="84" y="50" class="title">dsh-completion-guard npm download growth</text>
  <text x="84" y="72" class="subtitle">Full daily history · 2026-08-26 → 2026-09-06</text>
  <text x="900" y="38" text-anchor="end" class="metric-label">Total downloads</text>
  <text x="900" y="70" text-anchor="end" class="metric-value">1,466</text>
  <g transform="translate(84,102)"><circle cx="5" cy="-4" r="5" fill="#f59e0b"/><text x="18" y="0" class="package-role">Previous package</text><text x="18" y="23" class="package-name">dsh-context-guard</text><text x="244" y="23" text-anchor="end" class="package-total">923</text></g><g transform="translate(356,102)"><circle cx="5" cy="-4" r="5" fill="#2563eb"/><text x="18" y="0" class="package-role">Current package</text><text x="18" y="23" class="package-name">dsh-completion-guard</text><text x="244" y="23" text-anchor="end" class="package-total">543</text></g>
  <text x="84" y="160" class="axis-title">Cumulative downloads</text>
  <line x1="84" y1="436" x2="900" y2="436" class="grid"/><text x="70" y="440" text-anchor="end" class="axis">0</text><line x1="84" y1="349.33333333333337" x2="900" y2="349.33333333333337" class="grid"/><text x="70" y="353.33333333333337" text-anchor="end" class="axis">500</text><line x1="84" y1="262.6666666666667" x2="900" y2="262.6666666666667" class="grid"/><text x="70" y="266.6666666666667" text-anchor="end" class="axis">1,000</text><line x1="84" y1="176" x2="900" y2="176" class="grid"/><text x="70" y="180" text-anchor="end" class="axis">1,500</text>
  <polygon points="84.00,436 84.00,419.53 158.18,349.33 232.36,313.80 306.55,276.53 380.73,270.12 454.91,262.84 529.09,228.17 603.27,225.75 677.45,225.75 751.64,197.32 825.82,187.96 900.00,181.89 900.00,436" fill="url(#growth-fill)"/>
  <polyline points="84.00,419.53 158.18,349.33 232.36,313.80 306.55,276.53 380.73,270.12 454.91,262.84 529.09,228.17 603.27,225.75 677.45,225.75 751.64,197.32 825.82,187.96 900.00,181.89" fill="none" stroke="#0f766e" stroke-width="3.5" stroke-linejoin="round" stroke-linecap="round"/>
  <line x1="306.5454545454545" y1="176" x2="306.5454545454545" y2="436" class="rename"/><text x="316.5454545454545" y="194" text-anchor="start" class="rename-label">Renamed · 2026-08-29</text>
  <circle cx="900" cy="181.89333333333332" r="5" fill="#ffffff" stroke="#0f766e" stroke-width="3"/>
  <g class="endpoint-badge" data-position="below">
    <rect x="840.50" y="193.89" width="51.50" height="22" rx="6" class="endpoint-backdrop"/>
    <text x="885.00" y="208.89" text-anchor="end" class="endpoint">1,466</text>
  </g>
  <line x1="84.00" y1="436" x2="84.00" y2="441" class="grid"/><text x="84.00" y="464" text-anchor="middle" class="axis x-axis-tick" data-day="2026-08-26">08-26</text><line x1="158.18" y1="436" x2="158.18" y2="441" class="grid"/><text x="158.18" y="464" text-anchor="middle" class="axis x-axis-tick" data-day="2026-08-27">08-27</text><line x1="232.36" y1="436" x2="232.36" y2="441" class="grid"/><text x="232.36" y="464" text-anchor="middle" class="axis x-axis-tick" data-day="2026-08-28">08-28</text><line x1="306.55" y1="436" x2="306.55" y2="441" class="grid"/><text x="306.55" y="464" text-anchor="middle" class="axis x-axis-tick" data-day="2026-08-29">08-29</text><line x1="380.73" y1="436" x2="380.73" y2="441" class="grid"/><text x="380.73" y="464" text-anchor="middle" class="axis x-axis-tick" data-day="2026-08-30">08-30</text><line x1="454.91" y1="436" x2="454.91" y2="441" class="grid"/><text x="454.91" y="464" text-anchor="middle" class="axis x-axis-tick" data-day="2026-08-31">08-31</text><line x1="529.09" y1="436" x2="529.09" y2="441" class="grid"/><text x="529.09" y="464" text-anchor="middle" class="axis x-axis-tick" data-day="2026-09-01">09-01</text><line x1="603.27" y1="436" x2="603.27" y2="441" class="grid"/><text x="603.27" y="464" text-anchor="middle" class="axis x-axis-tick" data-day="2026-09-02">09-02</text><line x1="677.45" y1="436" x2="677.45" y2="441" class="grid"/><text x="677.45" y="464" text-anchor="middle" class="axis x-axis-tick" data-day="2026-09-03">09-03</text><line x1="751.64" y1="436" x2="751.64" y2="441" class="grid"/><text x="751.64" y="464" text-anchor="middle" class="axis x-axis-tick" data-day="2026-09-04">09-04</text><line x1="825.82" y1="436" x2="825.82" y2="441" class="grid"/><text x="825.82" y="464" text-anchor="middle" class="axis x-axis-tick" data-day="2026-09-05">09-05</text><line x1="900.00" y1="436" x2="900.00" y2="441" class="grid"/><text x="900.00" y="464" text-anchor="middle" class="axis x-axis-tick" data-day="2026-09-06">09-06</text>
  <text x="84" y="486" class="subtitle">12 daily observations · Unchanged on repeat checks · Available data through 2026-09-09</text>
  <text x="84" y="508" class="subtitle">Source: npm Downloads API · Download counts measure registry requests, not unique users or confirmed installations.</text>
</svg>
